<?xml version="1.0" encoding="UTF-8" standalone="no"?>
<svg
   version="1.1"
   id="Layer_1"
   x="0px"
   y="0px"
   width="100%"
   viewBox="0 0 1024 1024"
   enable-background="new 0 0 1024 1024"
   xml:space="preserve"
   sodipodi:docname="bluepad32_logo_ok.svg"
   inkscape:version="1.3.2 (091e20ef0f, 2023-11-25, custom)"
   xmlns:inkscape="http://www.inkscape.org/namespaces/inkscape"
   xmlns:sodipodi="http://sodipodi.sourceforge.net/DTD/sodipodi-0.dtd"
   xmlns="http://www.w3.org/2000/svg"
   xmlns:svg="http://www.w3.org/2000/svg"><defs
   id="defs15"><inkscape:path-effect
     effect="fillet_chamfer"
     id="path-effect57"
     is_visible="true"
     lpeversion="1"
     nodesatellites_param="F,0,0,1,0,0,0,1 @ F,0,0,1,0,0,0,1 @ F,0,0,1,0,0,0,1 @ F,0,0,1,0,0,0,1 @ F,0,0,1,0,0,0,1 @ F,0,0,1,0,0,0,1 @ F,0,0,1,0,0,0,1 @ F,0,0,1,0,0,0,1 @ F,0,0,1,0,0,0,1 @ F,0,0,1,0,0,0,1 @ F,0,0,1,0,0,0,1 @ F,0,0,1,0,0,0,1"
     radius="0"
     unit="px"
     method="auto"
     mode="F"
     chamfer_steps="1"
     flexible="false"
     use_knot_distance="true"
     apply_no_radius="true"
     apply_with_radius="true"
     only_selected="false"
     hide_knots="false" /><inkscape:path-effect
     effect="fillet_chamfer"
     id="path-effect56"
     is_visible="true"
     lpeversion="1"
     nodesatellites_param="F,0,0,1,0,0,0,1 @ F,0,0,1,0,0,0,1 @ F,0,0,1,0,0,0,1 @ F,0,0,1,0,0,0,1 @ F,0,0,1,0,0,0,1 @ F,0,0,1,0,0,0,1 @ F,0,0,1,0,0,0,1 @ F,0,0,1,0,0,0,1 @ F,0,0,1,0,0,0,1 @ F,0,0,1,0,0,0,1 @ F,0,0,1,0,0,0,1 @ F,0,0,1,0,0,0,1"
     radius="0"
     unit="px"
     method="auto"
     mode="F"
     chamfer_steps="1"
     flexible="false"
     use_knot_distance="true"
     apply_no_radius="true"
     apply_with_radius="true"
     only_selected="false"
     hide_knots="false" /><inkscape:path-effect
     effect="fillet_chamfer"
     id="path-effect55"
     is_visible="true"
     lpeversion="1"
     nodesatellites_param="F,0,0,1,0,0,0,1 @ F,0,0,1,0,0,0,1 @ F,0,0,1,0,0,0,1 @ F,0,0,1,0,0,0,1 @ F,0,0,1,0,0,0,1 @ F,0,0,1,0,0,0,1 @ F,0,0,1,0,0,0,1 @ F,0,0,1,0,0,0,1 @ F,0,0,1,0,0,0,1 @ F,0,0,1,0,0,0,1 @ F,0,0,1,0,0,0,1 @ F,0,0,1,0,0,0,1"
     radius="0"
     unit="px"
     method="auto"
     mode="F"
     chamfer_steps="1"
     flexible="false"
     use_knot_distance="true"
     apply_no_radius="true"
     apply_with_radius="true"
     only_selected="false"
     hide_knots="false" /><inkscape:path-effect
     effect="fillet_chamfer"
     id="path-effect54"
     is_visible="true"
     lpeversion="1"
     nodesatellites_param="F,0,0,1,0,3.425,0,1 @ F,0,0,1,0,3.7,0,1 @ F,0,0,1,0,4.6,0,1 @ F,0,0,1,0,2.7,0,1 @ F,0,0,1,0,3.175,0,1 @ F,0,0,1,0,4.6,0,1 @ F,0,0,1,0,4.175,0,1 @ F,0,0,1,0,3.15,0,1 @ F,0,0,1,0,5.6,0,1 @ F,0,0,1,0,3.15,0,1 @ F,0,0,1,0,3.5,0,1 @ F,0,0,1,0,2.6,0,1"
     radius="0"
     unit="px"
     method="auto"
     mode="F"
     chamfer_steps="1"
     flexible="false"
     use_knot_distance="true"
     apply_no_radius="true"
     apply_with_radius="true"
     only_selected="false"
     hide_knots="false" /><inkscape:path-effect
     effect="fillet_chamfer"
     id="path-effect53"
     is_visible="true"
     lpeversion="1"
     nodesatellites_param="F,0,0,1,0,0,0,1 @ F,0,0,1,0,0,0,1 @ F,0,0,1,0,0,0,1 @ F,0,0,1,0,0,0,1 @ F,0,0,1,0,0,0,1 @ F,0,0,1,0,0,0,1 @ F,0,0,1,0,0,0,1 @ F,0,0,1,0,0,0,1 @ F,0,0,1,0,0,0,1 @ F,0,0,1,0,0,0,1 @ F,0,0,1,0,0,0,1 @ F,0,0,1,0,0,0,1"
     radius="0"
     unit="px"
     method="auto"
     mode="F"
     chamfer_steps="1"
     flexible="false"
     use_knot_distance="true"
     apply_no_radius="true"
     apply_with_radius="true"
     only_selected="false"
     hide_knots="false" /></defs><sodipodi:namedview
   id="namedview15"
   pagecolor="#ffffff"
   bordercolor="#666666"
   borderopacity="1.0"
   inkscape:showpageshadow="2"
   inkscape:pageopacity="0.0"
   inkscape:pagecheckerboard="0"
   inkscape:deskcolor="#d1d1d1"
   inkscape:zoom="1"
   inkscape:cx="514.5"
   inkscape:cy="463"
   inkscape:window-width="2560"
   inkscape:window-height="1358"
   inkscape:window-x="0"
   inkscape:window-y="0"
   inkscape:window-maximized="1"
   inkscape:current-layer="Layer_1"
   showguides="true" />
<path
   id="path1"
   style="fill:#000080;stroke-width:1"
   d="m 442.24224,213.01046 c -8.49557,0.5548 -15.30384,5.66985 -17.95596,13.78577 -3.00985,9.21096 0.55157,18.75572 8.81759,23.63107 2.02272,1.19295 4.22588,2.03822 5.9048,3.84148 9.89618,10.62934 19.72098,21.33041 29.87248,31.71204 3.11062,3.18114 4.29467,6.39471 4.25929,10.75218 -0.26575,32.74289 -0.35482,65.48699 -0.43167,98.23109 -0.006,2.50254 -1.21105,3.31015 -3.38407,3.3306 -4.05439,0.0382 -8.10948,0.0625 -12.16404,0.0594 -6.64478,-0.005 -7.00087,-0.31921 -7.03149,-6.76419 -0.0562,-11.82524 0.12724,-23.65502 -0.15446,-35.47431 -0.21249,-8.3739 0.81838,-12.9944 7.73643,-17.86289 7.26859,-8.87279 5.90659,-21.65151 -3.07714,-28.91014 -8.74034,-7.0619 -20.91405,-5.60947 -27.90619,3.32864 -6.86507,8.77563 -4.98002,21.96374 4.58601,28.58141 3.87121,2.6781 5.1372,5.75456 5.05136,10.16014 -0.24023,12.3242 -0.51066,24.65677 -0.27723,36.97724 0.18985,10.02126 0.50599,10.00474 -9.20767,9.98984 -3.71662,-0.006 -7.4378,-0.0464 -11.15021,0.0931 -16.61206,0.62405 -32.46149,4.46921 -47.11955,12.32244 -39.63804,21.2366 -64.23639,66.61097 -54.0164,114.26234 11.98409,55.87651 65.6437,95.4905 126.22638,80.82758 25.54834,-6.18344 45.7901,-20.98515 61.71125,-41.74346 11.41418,-14.88206 26.27483,-20.02185 41.69395,-14.11052 7.55009,2.8946 12.67708,8.73953 17.60944,14.82139 12.61982,15.5612 27.25991,28.5668 46.5255,36.25647 35.27646,13.67035 68.41141,10.07604 98.79543,-11.70464 34.85156,-24.98338 49.29985,-59.70579 43.60875,-101.89435 -5.68726,-42.16018 -38.63612,-76.62369 -80.35037,-86.23535 -11.40707,-2.62839 -23.02652,-3.36728 -34.69017,-2.893 -4.05298,0.16478 -5.18198,-1.29793 -5.33848,-5.20778 -0.20871,-5.21314 -0.91934,-10.40996 -0.68909,-15.65107 0.7032,-16.00212 -0.0709,-32.00841 0.38019,-48.03042 0.64565,-22.92874 0.0215,-45.89817 -0.35246,-68.84571 -0.0778,-4.76789 0.77578,-7.97037 5.02561,-11.02743 10.00224,-7.19492 11.25499,-19.42211 3.76228,-28.9438 -6.61096,-8.40094 -19.73959,-9.76635 -28.17352,-2.93061 -10.15682,8.23215 -9.40984,23.75477 1.45738,32.02291 2.00392,1.52466 4.84082,2.25044 4.71474,5.91074 -0.21472,6.2332 0.20002,12.48559 0.21979,18.7302 0.0412,12.99848 0.19802,25.99978 -0.0713,38.99304 -0.2448,11.816 -0.19654,23.61695 -0.0931,35.43273 0.0946,10.77988 -0.50965,21.56472 0.1089,32.36944 0.25829,4.51124 0.40873,9.09252 -0.44156,13.64123 -0.46174,2.47045 -1.55782,3.50608 -4.01376,3.47911 -4.72974,-0.052 -9.47513,-0.20841 -14.18775,0.0891 -4.40351,0.27796 -5.97148,-1.35346 -5.92261,-5.79391 0.16518,-15.0342 0.15698,-30.07315 -0.0931,-45.10575 -0.0764,-4.59621 0.9472,-7.80142 4.98799,-10.64526 7.16017,-5.03912 9.12259,-15.79834 5.22164,-24.32015 -3.82066,-8.34613 -12.23497,-12.90894 -21.06479,-11.42148 -8.36138,1.40853 -14.59615,7.8326 -16.54214,17.0451 -1.48714,7.04031 2.08846,15.14185 8.89877,19.56978 2.78885,1.81322 5.07426,3.40248 5.01769,7.38 -0.20904,14.69423 0.0158,29.39412 -0.12673,44.08993 -0.0883,9.10171 -0.25422,9.10039 -9.07104,9.13243 -25.70367,-0.0429 -51.40724,-0.096 -77.11085,0.0218 -3.82199,0.10529 -5.57219,-1.22778 -5.55232,-5.22165 0.17258,-34.62879 0.22385,-69.25782 0.42375,-103.88637 0.0159,-2.76475 -0.73723,-4.80835 -2.63953,-6.76022 -7.30869,-7.49909 -14.6012,-15.01994 -21.70439,-22.71228 -2.92433,-3.16684 -6.60022,-5.80672 -8.61165,-11.01357 1.26738,-0.97358 2.91559,-1.92356 4.16029,-3.25337 3.93554,-4.20458 5.34627,-9.42958 4.76225,-14.98377 -0.95703,-9.10175 -8.64971,-16.74112 -17.08668,-17.47874 -1.27537,-0.11151 -2.52288,-0.12481 -3.73654,-0.0455 z m 0.79206,11.6492 a 7.3503016,7.3503016 0 0 1 7.3503,7.3503 7.3503016,7.3503016 0 0 1 -7.3503,7.3503 7.3503016,7.3503016 0 0 1 -7.3503,-7.3503 7.3503016,7.3503016 0 0 1 7.3503,-7.3503 z m 179.95566,1.52075 a 7.3503016,7.3503016 0 0 1 7.3503,7.3503 7.3503016,7.3503016 0 0 1 -7.3503,7.3503 7.3503016,7.3503016 0 0 1 -7.3503,-7.3503 7.3503016,7.3503016 0 0 1 7.3503,-7.3503 z m -38.0188,88.20362 a 7.3503016,7.3503016 0 0 1 7.3503,7.3503 7.3503016,7.3503016 0 0 1 -7.3503,7.3503 7.3503016,7.3503016 0 0 1 -7.3503,-7.3503 7.3503016,7.3503016 0 0 1 7.3503,-7.3503 z m -141.93686,2.53458 a 7.3503016,7.3503016 0 0 1 7.3503,7.35031 7.3503016,7.3503016 0 0 1 -7.3503,7.3503 7.3503016,7.3503016 0 0 1 -7.3503,-7.3503 7.3503016,7.3503016 0 0 1 7.3503,-7.35031 z m 204.54115,120.13942 a 64.885421,64.885421 0 0 1 64.88542,64.88542 64.885421,64.885421 0 0 1 -64.88542,64.88542 64.885421,64.885421 0 0 1 -64.88542,-64.88542 64.885421,64.885421 0 0 1 64.88542,-64.88542 z m -231.98993,9.33837 c 6.36308,0.0681 12.68434,0.16427 19.08662,0.0277 6.00859,-0.12816 6.01103,-0.0163 6.27509,6.39785 0.25621,6.22338 0.22604,12.91832 0.46731,19.15197 0.188,4.85735 0.2848,4.97358 5.38996,4.98403 6.74746,0.0138 13.49458,-0.18134 20.24699,0.53068 3.64561,0.38444 5.30798,2.21068 5.32065,5.44936 0.0551,13.9961 -0.0669,27.99245 -0.13464,41.98899 -0.0138,2.84405 -1.54868,4.40533 -4.29891,4.67315 l -21.20537,0.30494 c -4.2907,-0.42401 -5.32524,1.56195 -5.27313,5.25927 0.0905,6.41867 -0.11949,12.84369 0.0534,19.25889 0.12073,4.47811 -1.52985,6.39768 -6.2236,6.32459 -13.00547,-0.20235 -26.01923,-0.19783 -39.02471,0.006 -4.23597,0.0663 -5.85086,-1.74401 -5.8751,-5.6454 -0.0388,-6.25048 -0.19496,-12.50208 -0.0871,-18.75 0.0727,-4.20894 -1.54185,-6.28137 -5.9444,-6.18597 -5.90845,0.12764 -11.82464,-0.10829 -17.73419,-0.006 -6.78825,0.11751 -7.2279,-0.90602 -7.54634,-7.85722 -0.5545,-12.10463 0.0314,-22.7217 -0.0376,-36.41489 -0.0324,-6.42761 1.45786,-8.87312 7.84336,-8.86906 6.12713,0.004 11.15415,0.2687 16.72233,0.008 6.38916,-0.29925 6.36995,-0.33562 6.65923,-6.59587 0.26516,-5.73807 0.0704,-11.48927 0.0198,-17.23321 -0.0362,-4.09655 1.87361,-6.50896 5.96816,-6.66517 6.56443,-0.25043 12.96909,-0.21065 19.33217,-0.14257 z m 231.98993,6.88298 a 16.221355,16.221355 0 0 0 -16.22135,16.22136 16.221355,16.221355 0 0 0 16.22135,16.22135 16.221355,16.221355 0 0 0 16.22136,-16.22135 16.221355,16.221355 0 0 0 -16.22136,-16.22136 z m -225.94257,5.8652 c -4.37477,0.22691 -8.77361,0.12337 -13.15806,0.0257 -3.97335,-0.0885 -5.87885,1.35414 -5.6256,5.68697 0.32441,5.54983 0.11251,11.13099 0.13663,16.69857 0.0388,8.97257 0.0411,8.95873 -8.70075,9.01561 -5.39841,0.0351 -10.79733,0.12427 -16.19562,0.17821 -3.93749,0.0393 -5.81947,1.80602 -5.62362,5.94441 0.23104,4.88276 0.0786,9.78461 0.13267,14.67683 0.0362,3.27421 1.03865,5.37992 5.00581,5.32659 6.73717,-0.0907 13.47996,0.33492 20.22125,0.37821 3.57527,0.0229 5.19307,1.44143 5.17016,5.14839 -0.0394,6.38576 0.67374,12.75706 0.19801,19.16384 -0.33529,4.51566 1.98179,6.97229 6.55627,7.11665 3.70887,0.11714 7.42016,0.22361 11.1304,0.22969 6.16955,0.0102 7.25232,-1.08694 7.40773,-7.36019 0.15012,-6.05956 0.41504,-12.12224 0.3386,-18.17972 -0.055,-4.36698 1.80973,-6.07182 6.10281,-5.92065 6.06574,0.21364 12.14152,0.14656 18.21339,0.16238 4.16849,0.0108 6.17555,-2.12693 6.13844,-6.28301 -0.0314,-3.54264 0.002,-7.08564 0.006,-11.11456 0.0228,-9.38914 -0.2542,-9.64253 -9.0057,-9.57004 -5.39843,0.0447 -10.79835,-0.0714 -16.19561,0.0198 -4.16097,0.0703 -6.23892,-1.54052 -6.10281,-5.98597 0.19608,-6.40526 -0.15811,-12.83014 0.12079,-19.2292 0.20568,-4.71903 -1.76141,-6.36249 -6.27113,-6.12855 z m 193.49986,26.57751 a 16.221355,16.221355 0 0 0 -16.22135,16.22136 16.221355,16.221355 0 0 0 16.22135,16.22135 16.221355,16.221355 0 0 0 16.22136,-16.22135 16.221355,16.221355 0 0 0 -16.22136,-16.22136 z m 64.88542,0 a 16.221355,16.221355 0 0 0 -16.22135,16.22136 16.221355,16.221355 0 0 0 16.22135,16.22135 16.221355,16.221355 0 0 0 16.22136,-16.22135 16.221355,16.221355 0 0 0 -16.22136,-16.22136 z m -32.44271,32.44271 a 16.221355,16.221355 0 0 0 -16.22135,16.22136 16.221355,16.221355 0 0 0 16.22135,16.22135 16.221355,16.221355 0 0 0 16.22136,-16.22135 16.221355,16.221355 0 0 0 -16.22136,-16.22136 z" />














</svg>
